<?xml version="1.0" encoding="utf-8"?>
<!-- Generator: Adobe Illustrator 16.0.0, SVG Export Plug-In . SVG Version: 6.00 Build 0)  -->
<!DOCTYPE svg PUBLIC "-//W3C//DTD SVG 1.1//EN" "http://www.w3.org/Graphics/SVG/1.1/DTD/svg11.dtd">
<svg version="1.1" id="Capa_1" xmlns="http://www.w3.org/2000/svg" xmlns:xlink="http://www.w3.org/1999/xlink" x="0px" y="0px"
	 width="1992.025px" height="680.111px" viewBox="0 0 1992.025 680.111" enable-background="new 0 0 1992.025 680.111"
	 xml:space="preserve">
<g>
	<path fill="#2c2d32" fill-rule="evenodd" clip-rule="evenodd" d="M1518.965,118.973c-22.67,5.672-41.756,17.153-58.434,32.723
		c-19.672,18.365-34.564,40.475-49.035,62.907c-1.479,2.294-2.539,4.97-5.63,7.192c-0.6-9.678-0.589-18.533,1.249-27.333
		c11.572-55.356,45.716-90.226,98.315-108.374c26.724-9.221,54.228-14.57,82.347-17.16c17.91-1.649,35.824-2.9,53.814-2.875
		c1.75,0.002,3.582-0.311,5.12,0.479c0.195,1.382-0.571,1.838-1.244,2.266c-14.794,9.412-23.882,23.418-31.142,38.845
		c-7.091,15.07-14.168,30.149-21.002,45.336c-13.057,29.016-34.436,48.782-64.275,59.996c-26.553,9.977-53.787,16.168-82.09,17.741
		c-4.496,0.25-10.057,2.77-12.609-2.633c-2.018-4.265,2.719-7.392,4.754-10.756c11.977-19.807,23.459-39.972,38.928-57.414
		c11.291-12.731,23.816-24.247,35.868-36.227C1515.533,122.062,1517.273,120.542,1518.965,118.973z"/>
	<path fill="#2c2d32" fill-rule="evenodd" clip-rule="evenodd" d="M1372.658,314.073c22.102,4.547,40.759,12.597,57.012,25.73
		c22.012,17.787,36.724,40.046,39.328,68.74c2.945,32.453-8.804,59.369-32.934,81.018c-25.217,22.622-55.005,33.054-88.658,33.087
		c-18.496,0.018-36.995-0.137-55.488,0.096c-4.889,0.063-6.266-1.684-6.262-6.373c0.096-102.482,0.068-204.964,0.082-307.447
		c0-6.089,0.531-6.723,6.494-6.645c21.482,0.28,43.012-1.187,64.436,0.849c23.08,2.192,42.678,11.796,56.804,30.548
		c14.721,19.542,10.897,45.908-8.321,62.885C1396.017,304.628,1385.521,310.18,1372.658,314.073z M1310.096,417.78
		c0,30.488-0.004,60.978,0.004,91.466c0.002,6.734,0.021,6.752,6.496,6.756c11.162,0.01,22.326,0.123,33.486-0.043
		c12.105-0.178,23.831-2.574,34.918-7.445c35.291-15.504,66.311-52.904,58.776-106.807c-5.981-42.776-46.779-80.709-89.815-82.091
		c-12.483-0.4-24.992-0.045-37.477-0.439c-5.14-0.162-6.514,1.683-6.483,6.639C1310.191,356.468,1310.097,387.125,1310.096,417.78z
		 M1310.102,260.662c0,15.482-0.005,30.965,0.005,46.447c0.002,2.363-0.212,4.958,3.343,4.854
		c13.954-0.405,27.958,1.146,41.867-0.917c25.541-3.789,43.523-27.288,42.292-55.157c-0.938-21.228-25.448-45.322-47.511-46.264
		c-11.301-0.481-22.642,0.016-33.951-0.333c-4.973-0.152-6.205,1.787-6.135,6.42
		C1310.239,230.693,1310.097,245.678,1310.102,260.662z"/>
	<path fill="#2c2d32" fill-rule="evenodd" clip-rule="evenodd" d="M284.546,312.002c24.827,0,49.655,0.099,74.48-0.091
		c4.462-0.034,6.378,1.354,7.467,5.784c18.032,73.379-9.368,145.518-73.366,187.441c-26.255,17.199-55.43,24.178-86.784,23.713
		c-23.677-0.35-46.554-4.156-67.807-14.438c-49.874-24.125-84.764-61.564-95.026-117.187
		c-10.088-54.678,3.084-104.061,40.756-146.019c21.695-24.164,47.714-41.325,79.473-49.203c36.046-8.942,71.009-5.35,104.875,9.492
		c28.205,12.361,52.94,29.41,71.743,54.257c4.24,5.604,4.25,5.598-1.65,9.127c-9.324,5.578-9.178,5.483-15.135-3.711
		c-23.045-35.575-54.725-59.204-96.93-66.013c-41.452-6.688-78.231,4.755-109.019,33.662
		c-29.811,27.989-47.222,62.544-51.911,103.097c-5.29,45.758,3.272,88.223,32.609,125.061
		c23.514,29.525,52.999,49.475,91.026,54.631c38.689,5.248,73.444-4.123,102.851-30.379c31.606-28.219,49.873-63.697,55.274-105.631
		c2.718-21.091,2.032-42.165-2.791-63.013c-0.871-3.769-2.597-4.986-6.475-4.973c-42.488,0.132-84.977,0.113-127.465-0.001
		c-2.392-0.007-6.571,1.793-6.69-2.66c-0.123-4.606,4.127-2.853,6.515-2.865C235.226,311.95,259.886,312.002,284.546,312.002z"/>
	<path fill="#2c2d32" fill-rule="evenodd" clip-rule="evenodd" d="M872.023,346.136c1.067-2.113,0.616-3.961,0.617-5.731
		c0.031-43.654,0.021-87.307,0.027-130.959c0.001-7.161,0.02-7.175,7.268-7.192c4.164-0.01,8.328,0.024,12.494,0.055
		c2.629,0.019,4.024,1.23,3.896,3.994c-0.07,1.496,0.009,2.999,0.009,4.499c0.001,69.145-0.563,138.296,0.181,207.433
		c0.584,54.437-42.583,101.677-91.65,110.146c-69.407,11.979-122.632-37.22-131.794-90.31
		c-12.238-70.928,37.667-123.305,90.707-131.641c42.084-6.615,78.984,3.944,106.738,38.478
		C870.816,345.279,871.27,345.529,872.023,346.136z M695.934,417.353c0.008,35.219,11.746,63.404,35.738,85.827
		c28.994,27.099,72.904,27.921,102.837,1.906c23.947-20.812,36.007-47.593,37.95-78.781c2.104-33.788-6.927-64.055-30.273-89.619
		c-29.828-32.661-79.334-34.914-111.256-4.482C706.625,355.375,695.631,384.052,695.934,417.353z"/>
	<path fill="#2c2d32" fill-rule="evenodd" clip-rule="evenodd" d="M493.031,300.339c6.058,2.899,6.541,5.779,1.908,10.894
		c-2.48,2.74-5.705,4.532-8.367,7.138c2.969-0.995,5.631-2.545,8.018-4.614c1-0.866,1.908-1.892,3.031-2.55
		c1.46-0.856,3.191-1.425,4.617,0c1.346,1.345,0.43,2.875-0.258,4.149c-4.725,8.76-12.042,14.529-21.307,17.816
		c-8.951,3.175-18.111,5.644-27.445,7.454c-11.311,2.194-19.98,7.334-25.672,18.261c-12.279,23.573-16.182,48.31-13.338,74.458
		c2.922,26.875,13.973,49.762,33.32,68.609c29.916,29.146,75.56,29.607,105.967,0.932c22.669-21.377,34.148-47.805,35.352-78.945
		c1.109-28.759-5.277-55.137-23.051-78.277c-4.017-5.231-8.373-9.771-14.871-12.029c-6.559-2.278-11.549-7.158-16.938-11.322
		l0.057,0.053c-1.154-1.421-2.406-2.774-3.444-4.276c-2.632-3.81-1.847-5.5,2.63-5.802c0.813-0.055,1.75,0.259,2.24-0.61
		c0.602-1.071-0.162-1.883-0.756-2.684c-0.1-0.133-0.236-0.237-0.342-0.365c-5.977-7.286-4.992-10.822,4.646-11.768
		c9.758-0.958,19.584,0.536,28.797,4.476c11.527,4.931,21.262,12.331,29.203,21.974c3.062,3.716,5.311,8.054,7.111,12.561
		c1.057,2.646,0.387,4.208-2.757,4.128c-4.813-0.122-9.626-0.227-14.438-0.286c-1.229-0.016-2.95-0.994-3.527,0.646
		c-0.477,1.346,1.085,2.306,1.941,3.255c8.002,8.861,14.476,18.704,18.982,29.769c28.688,70.421-15.225,142.654-82.721,154.845
		c-69.717,12.592-123.9-37.439-131.539-93.023c-6.291-45.786,9.781-82.752,47.33-109.914c6.189-4.478,12.045-9.386,18.369-13.674
		c11.262-7.636,23.895-10.629,37.254-11.274L493.031,300.339z"/>
	<path fill="#2c2d32" fill-rule="evenodd" clip-rule="evenodd" d="M1175.734,328.861c2.872-3.512,5.084-7.258,8.375-10.04
		c14.725-12.449,31.426-15.548,48.89-7.782c17.499,7.781,27.882,22.142,28.065,41.516c0.514,54.807,0.146,109.621,0.266,164.433
		c0.01,4.383-1.43,6.01-5.784,5.723c-4.313-0.283-8.665-0.217-12.989-0.021c-3.742,0.17-5.148-1.479-4.896-5.045
		c0.117-1.656,0.012-3.33,0.012-4.996c-0.01-53.813-0.014-107.624-0.029-161.436c-0.002-10.077-2.922-19.295-8.006-27.962
		c-4.731-8.064-11.584-10.851-20.656-9.501c-18.666,2.777-33.84,19.985-33.854,38.843c-0.037,53.979-0.012,107.958-0.016,161.936
		c-0.002,8.119-0.012,8.123-8.309,8.123c-3.998,0.002-7.996-0.063-11.994-0.006c-2.717,0.037-3.998-1.244-4.018-3.906
		c-0.01-1.332-0.045-2.664-0.045-3.998c-0.004-64.974-0.004-129.948,0-194.922c0-7.625,0.018-7.63,7.869-7.64
		c3.999-0.004,7.998,0.076,11.995,0.002c3.159-0.06,4.603,1.37,4.493,4.519c-0.068,1.997-0.078,4.002,0.031,5.996
		C1175.24,324.615,1174.654,326.608,1175.734,328.861z"/>
	<path fill="#2c2d32" fill-rule="evenodd" clip-rule="evenodd" d="M1610.125,304.71c39.939,3.256,70.479,21.703,91.167,56.317
		c2.362,3.953,0.459,5.086-2.784,6.407c-45.023,18.343-90.02,36.752-135.021,55.149c-13.715,5.607-27.396,11.299-41.157,16.791
		c-3.069,1.225-4.745,2.664-3.878,6.246c6.775,27.998,20.846,51.192,45.469,66.841c29.419,18.696,66.634,14.486,92.662-9.7
		c11.543-10.727,20.322-23.355,26.17-37.936c1.669-4.162,3.721-4.791,7.504-3.012c3.153,1.482,6.471,2.683,9.811,3.685
		c3.781,1.136,4.068,2.919,2.211,6.194c-8.774,15.482-20.395,28.291-34.955,38.535c-43.129,30.342-105.972,26.085-144.222-14.412
		c-17.052-18.053-27.97-38.8-31.206-63.383c-8.954-68.017,41.605-119.605,94.727-126.578
		C1594.416,304.832,1602.188,304.744,1610.125,304.71z M1515.297,416.906c-0.528,4.251,1.08,8.654,0.852,13.148
		c-0.199,3.935,0.721,4.979,4.768,3.295c52.236-21.755,104.518-43.401,156.841-64.943c3.472-1.429,3.589-2.878,2.104-5.915
		c-4.125-8.434-9.183-16.2-15.287-23.326c-30.916-36.085-82.676-38.169-116.277-4.653
		C1525.576,357.174,1515.953,385.104,1515.297,416.906z"/>
	<path fill="#2c2d32" fill-rule="evenodd" clip-rule="evenodd" d="M1032.627,304.694c39.744,3.071,70.26,21.249,91.155,55.487
		c2.575,4.218,1.505,5.758-2.743,7.485c-57.834,23.52-115.605,47.195-173.396,70.821c-7.174,2.934-7.242,2.919-5.271,10.561
		c6.01,23.3,17.853,42.988,36.82,57.99c30.766,24.33,72.236,22.264,100.807-4.629c11.234-10.574,19.789-22.963,25.57-37.17
		c1.887-4.635,4.092-5.25,8.219-3.252c3.135,1.518,6.461,2.69,9.791,3.735c3.395,1.063,3.496,2.774,1.891,5.565
		c-17.103,29.752-41.995,49.342-75.75,56.306c-60.334,12.45-111.217-22.836-128.87-71.551
		c-26.239-72.41,23.682-140.971,88.78-150.174C1017.25,304.792,1024.859,304.749,1032.627,304.694z M938.309,417.945
		c-0.461,3.66,0.9,8.083,0.857,12.557c-0.041,4.192,1.459,4.233,4.754,2.828c12.246-5.223,24.583-10.23,36.885-15.324
		c39.823-16.491,79.625-33.039,119.507-49.389c3.845-1.576,4.116-3.127,2.382-6.548c-4.166-8.219-9.118-15.859-15.086-22.874
		c-30.326-35.634-81.648-38.252-115.213-5.746C948.799,356.297,938.75,384.747,938.309,417.945z"/>
	<path fill="#2c2d32" fill-rule="evenodd" clip-rule="evenodd" d="M1347.643,0c0.465,0.8,1.144,1.574,1.398,2.471
		c7.219,25.443,22.742,45.706,40.42,64.572c9.057,9.667,17.76,19.44,20.998,32.821c4.947,20.445-0.039,39.197-9.541,57.207
		c-0.43,0.815-0.912,2.111-2.119,1.677c-1.646-0.594-1.569-2.439-1.962-3.79c-5.435-18.689-10.751-37.414-16.242-56.086
		c-0.583-1.982-0.12-5.787-3.044-5.309c-2.688,0.439-1.488,3.97-1.486,6.146c0.02,27.153,0.141,54.306,0.18,81.459
		c0.002,1.396,0.918,3.375-0.699,4.103c-1.565,0.704-2.546-1.188-3.623-2.11c-22.047-18.891-37.29-41.919-42.863-70.789
		c-4.641-24.045-1.75-47.694,3.958-71.152c3.11-12.786,7.313-25.246,12.022-37.53C1345.549,2.361,1345.705,0.681,1347.643,0z"/>
	<path fill="#2c2d32" fill-rule="evenodd" clip-rule="evenodd" d="M654.12,363.283c0,50.458,0.002,100.917-0.003,151.375
		c0,7.984-0.016,7.986-7.986,7.994c-3.496,0.004-7.017-0.254-10.486,0.059c-4.779,0.434-6.334-1.764-5.881-6.141
		c0.086-0.824,0.01-1.664,0.01-2.498c0-100.75,0-201.5,0.002-302.251c0-1.498,0.049-2.998,0.021-4.496
		c-0.055-2.837,1.128-4.342,4.148-4.299c5.327,0.077,10.658,0.071,15.984,0.01c2.711-0.032,4.003,1.264,4.093,3.879
		c0.063,1.83,0.094,3.662,0.094,5.493C654.121,262.699,654.12,312.991,654.12,363.283z"/>
	<path fill="#2c2d32" fill-rule="evenodd" clip-rule="evenodd" d="M533.998,322.313c4.943,8.454,9.896,16.878,14.061,25.785
		c5.592,11.957,10.363,24.076,12.565,37.193c2.06,12.27,0.585,23.942-5.116,34.88c-5.225,10.022-11.035,19.737-16.636,29.559
		c-4.198,7.362-6.78,15.159-6.763,23.718c0.002,1.298,0.268,2.962-1.162,3.565c-1.681,0.709-2.236-1.076-2.92-2.068
		c-13.335-19.303-26.152-38.865-34.518-61.029c-3.766-9.979-7.381-19.892-9.564-30.392c-5.352-25.732,6.53-56.312,28.244-71.253
		c1.387-0.954,2.987-3.112,4.754-1.624c1.826,1.539,0.352,3.611-0.4,5.474c-8.594,21.329-15.322,42.996-11.277,66.459
		c0.535,3.102,1.455,6.142,2.267,9.192c0.196,0.74,0.671,1.408,1.626,3.333c0.816-6.469,1.582-11.648,2.102-16.852
		c1.611-16.111,7.209-31.037,13.396-45.802c0.834-1.992,1.732-3.979,2.324-6.047c1.07-3.744,3.296-5.179,7.074-4.04L533.998,322.313
		z"/>
	<path fill="#2c2d32" fill-rule="evenodd" clip-rule="evenodd" d="M1944.916,485.191c3.418-14.063,6.523-26.748,9.582-39.445
		c10.201-42.359,20.387-84.724,30.58-127.086c0.271-1.131,0.486-2.283,0.838-3.39c0.613-1.938,1.77-3.283,4.024-2.81
		c2.632,0.554,2.194,2.483,1.747,4.332c-2.82,11.637-5.654,23.272-8.48,34.908c-22.299,91.792-44.598,183.584-66.898,275.376
		c-0.236,0.967-0.48,1.934-0.748,2.894c-0.602,2.161-2.064,3.005-4.167,2.378c-2.181-0.648-1.315-2.364-0.999-3.739
		c3.842-16.69,7.711-33.378,11.586-50.062c2.82-12.148,5.591-24.309,8.543-36.425c0.734-3.013,0.668-5.814-0.045-8.8
		c-16.156-67.781-32.26-135.574-48.369-203.366c-1-4.206-1.795-8.47-3.002-12.614c-1.152-3.949,0.445-5.209,4.113-5.164
		c4.664,0.058,9.336,0.168,13.991-0.046c3.862-0.177,5.546,1.396,6.448,5.181c6.014,25.238,12.262,50.42,18.41,75.626
		c7.053,28.92,14.076,57.848,21.13,86.769C1943.54,481.1,1944.051,482.449,1944.916,485.191z"/>
	<path fill="#2c2d32" fill-rule="evenodd" clip-rule="evenodd" d="M1760.986,315.262c-6.193,4.649-8.895,10.435-8.885,17.744
		c0.045,33.158,0.02,66.317,0.018,99.475c0,27.826,0.01,55.652-0.008,83.479c-0.004,6.615-0.082,6.666-6.705,6.689
		c-4.333,0.016-8.668-0.107-12.996,0.027c-3.164,0.098-4.67-1.217-4.609-4.375c0.025-1.332-0.025-2.666-0.027-4
		c0-64.649-0.002-129.299,0.002-193.95c0-8.342,0.029-8.676,8.09-8.235c5.615,0.307,11.544-2.04,16.904,1.717
		c0.898,0.63,1.914-1.031,2.823-1.691c6.187-4.489,13.185-6.327,20.702-6.014c9.453,0.394,14.643,6.699,13.822,16.409
		c-0.734,8.717-7.242,13.847-16.307,12.855C1763.23,334.234,1759.738,328.929,1760.986,315.262z"/>
	<path fill="#2c2d32" fill-rule="evenodd" clip-rule="evenodd" d="M1839.246,315.167c-6.678,5.664-9.021,11.907-9.025,19.201
		c-0.018,34.145-0.008,68.289-0.01,102.432c0,26.482-0.119,52.967,0.104,79.447c0.043,5.041-1.424,6.953-6.502,6.477
		c-3.963-0.371-7.996-0.236-11.982-0.031c-3.771,0.193-5.742-1.08-5.295-5.098c0.072-0.658,0.004-1.332,0.004-1.998
		c-0.002-65.456-0.004-130.913,0.002-196.37c0-7.201,0.02-7.206,7.092-7.225c3.664-0.009,7.328-0.005,10.992,0.004
		c0.998,0.002,2.459-0.377,2.924,0.133c4.125,4.526,6.302-0.205,9.115-1.783c5.988-3.357,12.47-4.746,19.232-4.156
		c9.503,0.828,13.611,7.241,12.238,18.491c-0.865,7.081-7.695,11.625-16.07,10.691c-9.769-1.09-14.242-6.997-12.83-16.915
		C1839.324,317.843,1839.246,317.196,1839.246,315.167z"/>
	<path fill="#2c2d32" fill-rule="evenodd" clip-rule="evenodd" d="M0,161.816c4.477-2.674,8.713-2.595,12.689-3.219
		c21.652-3.4,43.468-5.035,64.882,0.615c23.293,6.146,38.782,21.185,45.675,44.532c0.504,1.708,2.349,4.208,0.188,5.401
		c-1.692,0.936-2.939-1.683-4.152-2.923c-9.103-9.308-18.414-18.344-29.932-24.73c-7.313-4.055-15.074-6.668-23.786-7.884
		c1.357,2.281,3.272,3.064,4.934,4.008c15.292,8.689,27.515,20.913,39.153,33.814c1.055,1.169,2.78,2.193,2.016,4.193
		c-0.714,1.865-2.493,1.891-4.162,2.167c-16.313,2.704-32.464,2.013-48.434-2.295c-10.564-2.849-18.67-9.269-25.311-17.743
		c-1.335-1.704-2.636-3.435-3.946-5.159C21.236,181.293,14.592,168.187,0,161.816z"/>
	<path fill="#2c2d32" fill-rule="evenodd" clip-rule="evenodd" d="M1388.578,622.312c0-15.997-0.01-31.995,0.004-47.992
		c0.006-6.776,0.11-6.943,7.075-6.919c8.324,0.029,16.64-0.069,24.972,0.464c13.512,0.863,22.916,7.51,26.213,19.223
		c3.795,13.479-0.742,26.778-11.588,33.975c-6.438,4.271-6.462,4.285-2.547,11.166c7.412,13.031,14.867,26.039,22.279,39.07
		c3.128,5.503,2.68,5.676-3.303,6.41c-8.093,0.996-12.617-1.937-16.257-9.359c-6.372-12.99-14.141-25.289-21.009-38.049
		c-1.911-3.551-4.498-4.107-7.805-3.598c-3.758,0.582-2.694,3.715-2.713,5.986c-0.1,12.163-0.039,24.328-0.052,36.493
		c-0.009,8.46-0.021,8.46-8.651,8.401c-6.549-0.043-6.598-0.078-6.615-6.779c-0.019-6.666-0.005-13.332-0.005-19.996
		C1388.577,641.308,1388.577,631.81,1388.578,622.312z M1403.875,597.861c0,5.979,0.042,11.957-0.019,17.936
		c-0.029,2.889,1.111,4.321,4.147,4.16c3.996-0.213,7.975-0.576,11.662-2.197c10.066-4.43,14.588-16.586,10.885-28.982
		c-3.065-10.266-11.957-15.124-23.65-13.125c-2.729,0.465-3.018,2.168-3.023,4.273
		C1403.861,585.904,1403.871,591.882,1403.875,597.861z"/>
	<path fill="#2c2d32" fill-rule="evenodd" clip-rule="evenodd" d="M1626.445,622.321c0.027-16.02,4.105-30.706,15.178-42.657
		c19.406-20.948,47.844-19.072,64.814,3.994c18.639,25.336,15.014,65.873-7.68,85.852c-17.277,15.212-41.938,13.567-56.973-3.955
		C1631.144,653.154,1626.414,638.572,1626.445,622.321z M1644.133,621.739c0.045,5.981-0.02,11.952,1.094,17.888
		c1.892,10.092,4.518,19.834,12.121,27.346c8.404,8.303,21.11,8.38,29.664,0.242c4.572-4.35,7.422-9.76,9.414-15.667
		c4.388-13.009,4.983-26.478,3.867-39.937c-0.908-10.957-3.188-21.754-10.252-30.799c-6.045-7.738-15.186-10.783-24.43-7.92
		c-7.154,2.215-11.66,7.457-14.867,13.93C1645.289,597.832,1643.926,609.642,1644.133,621.739z"/>
	<path fill="#2c2d32" fill-rule="evenodd" clip-rule="evenodd" d="M1369.029,645.646c0,5.998-0.229,12.008,0.076,17.99
		c0.219,4.265-1.475,6.852-5.119,8.764c-30.933,16.217-69.209,7.906-78.041-34.991c-4.627-22.472-0.547-43.864,16.681-60.411
		c20.157-19.36,49.44-16.098,64.373,14.142c1.983,4.017-1.414,5.52-3.679,7.017c-3.246,2.148-3.232-1.559-4.172-3.082
		c-1.57-2.543-2.744-5.329-4.256-7.912c-10.197-17.418-28.194-15.123-38.961-4.865c-8.244,7.854-11.755,18.09-13.074,29.029
		c-1.84,15.264-1.336,30.344,6.813,44.076c6.613,11.145,15.992,17.629,29.559,16.674c3.251-0.23,6.191-1.16,9.012-2.666
		c3.656-1.954,5.645-4.592,5.457-9.163c-0.357-8.649-0.369-17.335,0-25.983c0.207-4.832-1.686-6.264-6.09-5.785
		c-1.811,0.196-3.662-0.02-5.495,0.015c-2.548,0.047-4.159-0.86-4.229-3.688c-0.068-2.78,0.949-4.537,3.965-4.545
		c7.664-0.019,15.328,0,22.991-0.015c3.351-0.007,4.192,2.029,4.181,4.907c-0.031,6.832-0.01,13.662-0.01,20.494
		C1369.016,645.646,1369.021,645.646,1369.029,645.646z"/>
	<path fill="#2c2d32" fill-rule="evenodd" clip-rule="evenodd" d="M493.035,300.342c-5.738-1.795-11.805-1.657-17.632-3.198
		c-18.157-4.805-32.433-14.998-43.302-30.157c-4.355-6.074-8.637-12.2-12.941-18.309c-3.031-4.301-2.615-5.328,2.304-6.979
		c22.235-7.456,42.04-1.479,60.228,11.474c6.297,4.486,10.053,11.521,12.68,18.809c2.674,7.419,6.039,14.404,10.598,20.855
		c1.516,2.146,3.631,5.13-1.891,4.786c-0.482-0.03-1.373,0.002-1.404,0.147c-1.324,6.188-5.855,1.457-8.643,2.568L493.035,300.342z"
		/>
	<path fill="#2c2d32" fill-rule="evenodd" clip-rule="evenodd" d="M1572.098,652.489c0,6.661-0.088,13.325,0.035,19.985
		c0.064,3.49-1.115,5.072-4.88,5.174c-10.663,0.291-10.661,0.426-10.661-10.358c0-30.978-0.006-61.955,0.006-92.933
		c0.004-6.745,0.186-7.012,7.078-6.948c8.152,0.075,16.348-0.085,24.447,0.677c19.364,1.82,28.271,18.238,26.663,34.6
		c-1.251,12.713-7.438,22.037-20.423,25.37c-6.016,1.544-12.279,0.911-18.376,0.154c-3.063-0.38-3.909,0.51-3.886,3.294
		c0.057,6.994,0.02,13.99,0.02,20.985C1572.113,652.489,1572.105,652.489,1572.098,652.489z M1572.119,598.804
		c0,5.816,0.104,11.635-0.043,17.447c-0.076,3.045,1.25,4.443,4.092,5.229c9.656,2.671,18.203-1.923,21.16-11.489
		c1.454-4.703,1.762-9.551,1.057-14.307c-1.377-9.295-6.447-19.529-21.013-18.533c-3.722,0.254-5.481,1.207-5.315,5.203
		C1572.285,587.83,1572.113,593.32,1572.119,598.804z"/>
	<path fill="#2c2d32" fill-rule="evenodd" clip-rule="evenodd" d="M1529.572,607.314c0.005-11.488,0.008-22.977,0.003-34.463
		c-0.001-2.557-0.214-5.174,3.53-5.291c3.896-0.121,4.105,2.387,4.101,5.299c-0.042,22.643,0.32,45.293-0.184,67.924
		c-0.306,13.758-3.978,26.762-17.019,34.129c-19.473,11-49.055,5.387-54.369-26.342c-0.799-4.771-1.061-9.564-1.043-14.406
		c0.072-20.311,0.131-40.623-0.045-60.935c-0.039-4.386,1.595-6.122,5.797-5.851c1.16,0.075,2.338,0.094,3.494-0.012
		c4.627-0.419,6.451,1.371,6.406,6.273c-0.201,22.475-0.049,44.953-0.076,67.428c-0.008,6.672,1.8,12.814,5.094,18.541
		c9.068,15.766,29.188,16.1,38.723,0.614c3.748-6.087,5.485-12.835,5.554-19.944
		C1529.645,629.292,1529.566,618.302,1529.572,607.314z"/>
	<path fill="#2c2d32" fill-rule="evenodd" clip-rule="evenodd" d="M513.752,270.349c-0.038,6.055,0.697,11.952,2.178,17.756
		c0.41,1.608,0.846,3.229,1.029,4.87c0.189,1.715-0.09,3.438-2.064,4.062c-1.684,0.531-2.797-0.478-3.816-1.693
		c-9.418-11.232-12.683-23.963-10.725-38.555c1.857-13.827,4.887-27.521,5.113-41.569c0.058-3.536-0.781-6.927-0.84-10.415
		c-0.023-1.318-0.434-2.8,1.046-3.558c1.225-0.626,2.2,0.344,3.171,0.941c18.332,11.29,26.652,28.586,29.131,49.196
		c1.482,12.32-0.995,24.186-5.324,35.702c-1.119,2.977-2.248,6.348-5.924,6.658c-3.732,0.313-5.332-2.899-6.873-5.683
		C516.797,282.536,515.007,276.547,513.752,270.349z"/>
	<path fill="#2c2d32" fill-rule="evenodd" clip-rule="evenodd" d="M130.438,103.645c19.66,27.63,25.846,56.507,9.011,81.312
		c-0.654,0.963-1.262,1.971-2.015,2.853c-0.833,0.977-1.438,2.774-2.861,2.447c-1.666-0.382-1.552-2.303-1.823-3.752
		c-2.012-10.779-4.021-21.56-6.083-32.329c-0.229-1.196-0.791-2.329-1.889-3.354c-0.784,8.693-1.552,17.387-2.373,26.078
		c-0.115,1.224,0.561,3.006-1.15,3.432c-1.528,0.38-2.177-1.253-2.942-2.277c-8.691-11.646-10.863-25.526-2.319-38.529
		c6.421-9.77,11.794-20.109,13.177-32.032C129.299,106.383,129.871,105.324,130.438,103.645z"/>
</g>
</svg>
