<?xml version="1.0" encoding="utf-8"?>
<!-- Generator: Adobe Illustrator 16.0.0, SVG Export Plug-In . SVG Version: 6.00 Build 0)  -->
<!DOCTYPE svg PUBLIC "-//W3C//DTD SVG 1.1//EN" "http://www.w3.org/Graphics/SVG/1.1/DTD/svg11.dtd">
<svg version="1.1" id="Capa_1" xmlns="http://www.w3.org/2000/svg" xmlns:xlink="http://www.w3.org/1999/xlink" x="0px" y="0px"
	 width="110px" height="110px" viewBox="0 0 110 110" enable-background="new 0 0 110 110" xml:space="preserve">
<g>
	<path fill="#2c2d32" fill-rule="evenodd" clip-rule="evenodd" d="M67.005,70.04c-5.274,0.001-10.547,0.008-15.822-0.002
		c-2.429-0.004-3.263-0.804-3.308-3.182c-0.027-1.442-0.01-2.886,0.004-4.328c0.014-1.328,0.704-2.035,2.027-2.066
		c3.807-0.09,5.535-3.251,4.398-6.71c-0.629-1.918-2.567-2.49-4.33-3.067c-0.233-0.076-0.492-0.068-0.738-0.099
		c-3.158-0.389-3.737,0.111-3.731,3.216c0.002,1.094-0.029,2.19,0.012,3.284c0.044,1.218-0.626,1.988-1.693,2.098
		c-2.015,0.207-4.056,0.352-6.058-0.309c-1.12-0.37-1.576-1.048-1.568-2.209c0.031-4.527,0.031-9.055,0.008-13.583
		c-0.006-1.177,0.447-1.741,1.669-1.732c3.93,0.027,7.888-0.289,11.783,0.086c5.183,0.499,9.948,2.153,12.648,7.212
		c1.889,3.544,1.792,7.181,0.354,10.803c-0.451,1.14-0.251,1.369,0.884,1.296c9.241-0.598,18.496-0.138,27.743-0.27
		c2.271-0.032,2.835,0.578,2.882,2.795c0.165,7.688-1.321,15.125-4.491,22.046c-3.58,7.819-9.387,13.838-16.85,18.235
		c-6.334,3.731-13.149,5.999-20.445,6.392c-4.701,0.252-9.41-0.359-13.952-1.89c-5.933-2-11.501-4.685-16.563-8.386
		c-2.264-1.655-4.108-3.737-5.939-5.838c-5.797-6.651-8.728-14.468-9.621-23.166c-0.597-5.821-0.663-11.578,0.853-17.299
		c1.255-4.74,3.564-8.944,6.247-12.972c5.841-8.767,13.904-14.413,24.057-17.202c5.43-1.492,10.938-2.257,16.525-1.802
		c8.217,0.671,15.699,3.428,22.161,8.677c1.234,1.001,2.441,2.037,3.638,3.083c1.47,1.286,1.474,1.993,0.064,3.253
		c-1.442,1.292-2.903,2.564-4.326,3.88c-0.771,0.714-1.358,0.701-2.132-0.076c-4.464-4.488-9.797-7.546-16.01-8.707
		c-6.417-1.199-12.87-1.047-19.145,1.036c-3.16,1.05-6.268,2.268-9,4.251c-4.309,3.128-7.6,7.123-10.042,11.833
		c-1.673,3.226-3.303,6.468-3.944,10.104c-0.425,2.404-0.285,2.617,2.089,2.618c8.408,0.004,16.816,0.003,25.223,0.007
		c2.35,0.001,2.354,0.005,2.354,2.292c0,5.772-0.006,11.543-0.002,17.314c0,2.002,0.01,1.957,1.941,1.928
		c2.089-0.032,4.171-0.11,6.25-0.326c2.659-0.276,4.509-2.127,4.604-4.785c0.045-1.189,0.096-2.387-0.322-3.544
		c-0.31-0.86,0.103-1.212,0.933-1.211c2.239,0.001,4.478,0.014,6.717,0.007c1.005-0.003,1.475,0.6,1.545,1.476
		c0.534,6.71-0.251,11.613-6.777,15.62c-1.767,1.085-3.84,1.392-5.888,1.411c-5.422,0.053-10.846,0.025-16.269,0.013
		c-1.691-0.004-1.998-0.297-2.003-2.016c-0.021-5.721-0.006-11.443-0.014-17.164c-0.002-1.93-0.076-2.001-2.029-2.005
		c-5.523-0.013-11.046-0.021-16.568-0.021c-1.948-0.001-2.017,0.058-1.7,1.902c1.055,6.157,3.971,11.409,8.007,16.07
		c4.769,5.507,10.873,8.963,17.79,10.92c8.712,2.466,17.121,1.662,25.029-2.998c7.159-4.218,12.877-9.766,16.308-17.468
		c1.041-2.337,1.669-4.776,2.134-7.279c0.218-1.178-0.231-1.471-1.331-1.463C77.851,70.059,72.427,70.038,67.005,70.04z"/>
	<path fill="#2c2d32" fill-rule="evenodd" clip-rule="evenodd" d="M86.087,15.442c-1.998,0.928-3.467,2.19-4.817,3.555
		c-2.278,2.304-4.083,4.992-5.881,7.677c-0.288,0.43-0.492,1.166-1.131,1.014c-0.634-0.149-0.514-0.914-0.579-1.416
		c-0.351-2.667,0.874-4.914,1.991-7.191c3.178-6.482,8.95-9.114,15.552-10.553c3.796-0.828,7.628-1.352,11.499-1.625
		c0.449-0.032,0.939-0.163,1.236,0.267c0.334,0.48-0.055,0.912-0.35,1.179c-2.703,2.448-3.757,5.838-4.999,9.051
		c-2.283,5.914-6.413,9.526-12.521,11.026c-2.217,0.545-4.386,1.332-6.708,1.307c-2.292-0.025-2.712-0.767-1.554-2.694
		c2.151-3.583,4.344-7.137,7.396-10.06C85.575,16.639,85.915,16.264,86.087,15.442z"/>
	<path fill="#2c2d32" fill-rule="evenodd" clip-rule="evenodd" d="M69.809,13.166c0.317,3.564,0.141,6.695,0.183,9.822
		c0.006,0.326,0.139,0.77-0.258,0.934c-0.396,0.164-0.597-0.258-0.844-0.476c-5.661-5.001-7.202-11.195-5.276-18.369
		c0.463-1.72,0.923-3.447,1.65-5.077c0.668,0.003,0.715,0.546,0.892,0.904c1.419,2.878,3.166,5.509,5.541,7.706
		c3.516,3.251,3.141,7.442,1.957,10.733c-0.145,0.399-0.247,1.002-0.75,1.013c-0.563,0.011-0.525-0.633-0.677-1.021
		C71.479,17.404,71.106,15.326,69.809,13.166z"/>
</g>
</svg>
